<svg height="315.03968" viewBox="0 0 400 396.98113208" width="317.420333" xmlns="http://www.w3.org/2000/svg"><g fill-rule="evenodd"><path d="m194.836 122.611c-54.591 4.611-86.967 60.926-62.989 109.564 27.972 56.74 108.72 56.505 136.496-.397 25.4-52.035-16.322-113.997-73.507-109.167m11.221 12.842c2.919 6.226 7.641 16.325 10.492 22.442s5.216 11.158 5.255 11.201c.07.08 3.682.905 19.705 4.501 4.698 1.054 11.758 2.651 15.691 3.55 3.932.899 8.401 1.894 9.93 2.213 4.547.945 4.568.953 4.568 1.719 0 .445-5.166 5.463-13.385 13.001-19.708 18.073-22.762 20.917-22.762 21.194 0 .138 1.779 9.799 3.954 21.468 2.773 14.886 3.831 21.362 3.545 21.707-.52.627-.667.567-7.3-2.953-3.059-1.624-10.924-5.775-17.478-9.225-6.554-3.451-13.351-7.038-15.104-7.973l-3.187-1.699-12.9 6.795c-30.859 16.253-29.538 15.596-30.148 14.993-.487-.481-.009-3.474 3.497-21.889 3.317-17.423 3.966-21.421 3.544-21.814-.285-.264-5.349-4.928-11.253-10.363-5.905-5.435-13.814-12.718-17.577-16.185-6.862-6.32-7.788-7.564-5.948-7.99.491-.114 5.273-1.18 10.625-2.369 9.496-2.109 35.428-7.935 37.27-8.372.702-.167 1.331-1.096 2.625-3.879 3.297-7.089 18.201-38.633 18.961-40.129 1.316-2.592 1.687-2.086 7.38 10.056" fill="#b3e3ee"/><path d="m227.805 6.616c-8.8 1.877-18.372 8.318-26.06 17.537l-1.757 2.107-3.37-2.268c-7.822-5.265-14.838-7.694-23.103-8.001-6.367-.237-12.495.772-10.036 1.652 9.96 3.563 19.495 26.076 14.688 34.678-.523.935-.859 1.701-.746 1.701s2.469-.306 5.235-.681c7.132-.965 27.556-.965 34.688 0 2.766.375 5.127.681 5.247.681.119 0-.31-.849-.953-1.887-4.541-7.326.703-25.233 12.591-42.999 2.228-3.329.516-4-6.424-2.52m-70.966 1.477c-9.523 3.917-19.756 17.627-22.377 29.982-.266 1.249-.361 1.316-1.533 1.069-14.828-3.128-28.281-1.213-35.399 5.039l-1.577 1.385 1.24-.182c9.149-1.343 27.24 16.058 26.641 25.624-.179 2.872-.176 2.884.667 2.331 1.425-.933 7.836-4.445 11.241-6.157 7.315-3.678 22.657-9.271 29.026-10.581l1.311-.27-1.792-1.137c-7.124-4.518-9.412-24.055-5.175-44.196.925-4.399 1.03-4.265-2.273-2.907m78.762 9.484c7.967 7.417 7.762 33.025-.303 37.893l-1.416.854 1.331.277c9.912 2.063 29.844 10.226 39.058 15.996 2.275 1.425 2.447 1.393 1.842-.342-2.637-7.565 8.641-22.075 27.263-35.078 3.887-2.714 3.798-2.425 1.126-3.648-8.513-3.897-22.113-2.393-34.571 3.824-2.174 1.085-4.066 1.838-4.205 1.674s-1.423-1.998-2.853-4.076c-6.373-9.258-15.36-15.824-24.208-17.685-3.872-.815-4.234-.778-3.064.311m-148.271 21.476c-6.838 6.552-10.624 19.786-9.51 33.241.407 4.916.73 4.462-3.771 5.292-11.585 2.137-21.798 8.257-26.949 16.149-1.745 2.673-1.857 3.491-.344 2.501 1.397-.915 8.544-.897 12.718.032 12.06 2.684 20.799 8.682 21.884 15.022l.271 1.583 1.985-2.713c6.542-8.937 19.316-21.731 27.894-27.936 2.83-2.047 2.997-2.379 1.203-2.392-8.239-.055-18.101-17.643-22.546-40.209-.539-2.736-.568-2.742-2.835-.57m214.756 5.733c1.963 4.802.772 14.137-2.885 22.618-3.166 7.345-7.183 11.596-11.927 12.622l-1.305.282 3.292 2.487c8.966 6.775 20.909 18.807 26.926 27.124 1.998 2.762 2.379 2.986 2.392 1.402.067-8.362 16.928-17.668 41.6-22.962 1.326-.284 1.141-.648-1.673-3.28-6.568-6.145-14.972-8.628-29.101-8.599l-7.636.016-.43-2.2c-2.577-13.184-8.378-23.112-16.865-28.863-2.224-1.506-2.804-1.663-2.388-.647m-103.685 16.94c-3.542 1.544-2.296 6.993 1.599 6.993 4.031 0 5.125-5.788 1.343-7.107-1.526-.532-1.451-.535-2.942.114m-13.297.522c-2.99 1.1-3.008 5.622-.026 6.857 1.419.588 2.922.293 3.998-.783 2.789-2.789-.253-7.441-3.972-6.074m26.713.109c-1.195.506-2.266 2.806-1.93 4.145.853 3.398 5.397 3.929 6.886.805 1.485-3.113-1.723-6.316-4.956-4.95m-40.888 2.545c-2.858 2.404-1.29 6.598 2.468 6.598.624 0 1.511-.468 2.205-1.162 3.264-3.264-1.151-8.4-4.673-5.436m54.436-.556c-2.324.938-2.837 4.122-.967 5.992 1.303 1.303 2.64 1.476 4.392.57 3.937-2.036.705-8.229-3.425-6.562m-67.886 4.156c-1.33 1.331-1.373 4.087-.081 5.257 2.612 2.363 6.256.736 6.256-2.794 0-2.937-4.075-4.562-6.175-2.463m79.914.073c-3.443 3.442 1.594 8.455 5.209 5.184 1.292-1.17 1.249-3.926-.081-5.257-1.379-1.379-3.71-1.346-5.128.073m-92.625 4.694c-2.306 2.306-.676 6.175 2.6 6.175 2.236 0 3.575-1.339 3.575-3.575s-1.339-3.575-3.575-3.575c-1.195 0-1.882.258-2.6.975m105.264 0c-2.306 2.306-.677 6.175 2.6 6.175 2.236 0 3.575-1.339 3.575-3.575s-1.339-3.575-3.575-3.575c-1.196 0-1.883.258-2.6.975m-117.524 6.205c-2.139 2.542-.655 5.887 2.624 5.916 2.204.019 3.678-1.409 3.678-3.563 0-3.391-4.131-4.933-6.302-2.353m129.787-.271c-2.506 2.156-.818 6.216 2.573 6.187 1.609-.014 2.483-.521 3.19-1.848 1.904-3.575-2.658-7.01-5.763-4.339m-69.246 10.569v8.738h1.191 1.192v-3.972-3.972h2.383 2.384v-1.192-1.191h-2.384-2.383v-2.384-2.383h3.376 3.377v-1.192-1.191h-4.568-4.568zm18.483-7.044c-2.146 2.146-3.411 10.963-1.999 13.938 1.749 3.687 7.212 3.58 9.156-.18.964-1.865 1.893-9.54 1.384-11.433-.998-3.704-5.843-5.023-8.541-2.325m4.601 1.109c1.675.897 1.505 9.477-.24 12.141-1.425 2.175-4.175.834-4.175-2.035 0-7.311 1.826-11.491 4.415-10.106m-95.012 2.726c-1.48 1.481-1.525 3.112-.132 4.767 2.298 2.731 6.926.75 6.373-2.728-.494-3.104-4.023-4.257-6.241-2.039m44.873-.835c-.597.252 3.198 16.1 4.056 16.933.272.265 7.938-1.687 8.423-2.145.176-.166.205-.758.066-1.315l-.255-1.012-2.646.756c-4.099 1.172-3.678 1.634-5.816-6.393-1.966-7.385-2.068-7.567-3.828-6.824m63.305 7.349c-1.351 4.221-2.564 7.953-2.695 8.294-.168.437.117.743.97 1.041 1.433.499 1.267.732 2.58-3.604.579-1.911 1.125-3.475 1.213-3.475 1.83 0 2.169.715 2.283 4.822l.114 4.059 1.349.549 1.349.55-.261-4.295-.261-4.295 1.291-.596c3.49-1.61 4.139-7.04 1.035-8.653-1.153-.6-5.463-2.072-6.065-2.072-.245 0-1.55 3.454-2.902 7.675m44.355-6.514c-1.481 1.481-1.526 3.112-.133 4.767 2.147 2.551 6.519.933 6.519-2.414 0-1.749-1.896-3.514-3.774-3.514-1.074 0-1.753.302-2.612 1.161m-37.403 2.459c3.069 1.148 1.343 5.6-1.926 4.971-2.365-.455-2.44-.621-1.513-3.365.897-2.655.78-2.601 3.439-1.606m-85.306 2.018c-3.525 1.809-3.651 4.66-.493 11.128 2.777 5.685 5.106 7.032 8.627 4.989 3.131-1.817 3.287-4.272.655-10.272-2.687-6.123-5.109-7.734-8.789-5.845m-115.969 3.2c-3.921 8.678-2.462 21.678 3.881 34.594l1.908 3.886-3.533 2.363c-10.716 7.168-18.96 19.134-18.96 27.521v1.166l.916-.988c7.119-7.681 33.112-7.444 37.707.344l.835 1.416 1.691-5.957c3.15-11.094 8.472-23.689 13.971-33.064 2.258-3.847 2.238-3.727.518-3.127-7.848 2.736-24.56-10.476-36.116-28.552-1.64-2.565-1.469-2.59-2.818.398m119.217-1.252c1.263.676 4.768 8.421 4.618 10.206-.484 5.763-7.027-.566-7.764-7.509-.262-2.472 1.21-3.733 3.146-2.697m-43.929 1.978c-3.088 3.67 1.962 8.162 5.357 4.767 2.339-2.339.747-5.989-2.612-5.989-1.43 0-1.889.204-2.745 1.222m173.982 0c-3.059 3.635 1.993 8.131 5.358 4.767 2.339-2.339.746-5.989-2.613-5.989-1.429 0-1.889.204-2.745 1.222m68.661 1.855c-.092 9.699-15.596 25.711-24.903 25.719-1.693.001-3.078.021-3.078.045 0 .023.921 1.632 2.048 3.574 5.365 9.254 10.502 21.497 13.607 32.432l1.692 5.963.832-1.343c4.589-7.416 21.476-9.572 44.086-5.629 4.415.77 4.359.809 3.137-2.199-2.87-7.062-9.27-13.188-18.648-17.847-3.337-1.658-10.342-4.454-11.203-4.472-1.274-.025-1.449-.647-.85-3.014 3.025-11.956.624-27.176-5.372-34.054l-1.326-1.521zm-96.242 1.691c-7.38 5.346-7.96 16.057-.864 15.959 2.869-.04 4.393-1.601 2.888-2.959-.606-.547-.794-.555-1.466-.062-3.29 2.413-4.969-1.692-2.55-6.231 3.011-5.649 8.565-7.453 7.765-2.522-.304 1.871 1.886 2.811 2.539 1.092 1.678-4.414-4.281-8.197-8.312-5.277m-123.923 3.411c-1.568 1.003-2.851 1.989-2.851 2.191 0 .265 8.269 12.774 9.402 14.223.239.305 2.117-.74 2.117-1.179 0-.24-.937-1.778-2.083-3.419-2.003-2.868-2.053-3.004-1.314-3.545 1.123-.821 1.311-.749 4.76 1.801 3.005 2.222 3.192 2.301 4.071 1.725 1.334-.874 1.24-1.017-2.238-3.455l-3.159-2.214.227-1.919c.643-5.428-3.774-7.509-8.932-4.209m5.707 1.535c1.415 1.414 1.258 2.706-.506 4.16-1.886 1.555-1.731 1.598-3.424-.953l-1.443-2.173 1.479-1.005c1.85-1.257 2.66-1.263 3.894-.029m-37.013-.114c-2.156 1.044-2.459 4.293-.56 5.991 1.645 1.471 3.299 1.447 4.815-.069 3.022-3.022-.402-7.787-4.255-5.922m192.873.697c-3.402 3.402 1.232 8.497 4.815 5.294 2.655-2.374.981-6.455-2.649-6.455-.581 0-1.495.49-2.166 1.161m-25.573 10.174-5.851 6.551.931.79.931.79 2.675-2.876 2.675-2.876.827.827.827.827-1.581 3.798-1.581 3.799.885.831c1.244 1.168 1.175 1.243 2.793-3.069 1.418-3.78 1.497-3.895 2.579-3.736 2.618.384 5.392-2.232 5.392-5.085 0-2.072-.862-3.293-4.216-5.974l-1.436-1.147zm-71.348-3.819c-2.814 2.814.14 7.276 3.938 5.952s2.718-7.113-1.326-7.113c-1.075 0-1.753.302-2.612 1.161m-79.196 3.208c-3.955 3.892-4.147 4.156-3.529 4.839.913 1.009 1.288.921 2.939-.692l1.449-1.415 5.209 5.486 5.209 5.487.993-.993.993-.993-5.208-5.486-5.209-5.486 1.532-1.569 1.531-1.568-.863-.863-.863-.863zm67.508-3.113c-2.424 1.333-2.894 4.054-1.024 5.925 2.125 2.124 5.476 1.158 6.217-1.792.696-2.774-2.72-5.493-5.193-4.133m25.391.102c-3.448 1.502-2.166 6.984 1.633 6.984 3.867 0 5.095-5.474 1.587-7.073-1.294-.589-1.687-.578-3.22.089m65.73 2.033c2.593 2.953-.325 6.182-3.561 3.939-1.949-1.351-1.943-1.548.11-3.64 2.014-2.053 1.918-2.045 3.451-.299m-184.867 1.54c-1.326 1.327-1.627 2.821-.882 4.383 1.161 2.435 4.172 2.802 6.082.741 3.058-3.299-2.02-8.303-5.2-5.124m80.223.017c-2.274 2.273-.679 6.174 2.524 6.174 3.301 0 4.979-3.871 2.676-6.174-1.355-1.355-3.846-1.355-5.2 0m50.446 0c-2.305 2.305-.676 6.174 2.6 6.174 2.236 0 3.575-1.338 3.575-3.574 0-3.277-3.869-4.906-6.175-2.6m80.425.186c-2.99 2.99.379 7.693 4.204 5.869 1.699-.81 2.497-2.927 1.769-4.686-1.072-2.588-3.99-3.166-5.973-1.183m-141.635 3.587c-2.386 1.005-2.897 4.465-.906 6.14 3.469 2.918 8.027-1.706 5.034-5.107-.99-1.125-2.821-1.584-4.128-1.033m74.28 0c-2.386 1.005-2.897 4.465-.906 6.14 3.469 2.918 8.027-1.706 5.034-5.107-.99-1.125-2.821-1.584-4.128-1.033m47.922 7.837c-2.513 2.312-5.347 4.916-6.299 5.787l-1.731 1.584.936.919.937.92 4.171-3.811c9.079-8.296 8.86-8.056 8.1-8.895-1.022-1.129-1.2-1.027-6.114 3.496m-175.649-.908c-.673.927-.673.927 3.686 4.055 2.398 1.72 4.194 3.183 3.991 3.25-.202.068-2.839-.349-5.86-.925l-5.492-1.049-.931 1.082c-.512.595-.784 1.208-.606 1.363 1.334 1.155 13.675 9.941 13.963 9.941.201 0 .634-.402.961-.894.581-.872.475-.983-4.42-4.614-2.863-2.124-4.589-3.629-4.023-3.506.547.119 3.579.693 6.738 1.277l5.745 1.061.717-.885c.708-.874.697-.9-.78-1.971-.823-.597-3.974-2.897-7.002-5.111-6.168-4.511-5.775-4.331-6.687-3.074m42.094-.338c-2.593 1.418-2.613 5.098-.036 6.471 2.543 1.354 5.289-.241 5.289-3.073 0-2.881-2.841-4.718-5.253-3.398m48.617.85c-.76 1.496-15.664 33.04-18.961 40.129-1.294 2.783-1.923 3.712-2.625 3.879-1.842.437-27.774 6.263-37.27 8.372-5.352 1.189-10.134 2.255-10.625 2.369-1.84.426-.914 1.67 5.948 7.99 3.763 3.467 11.672 10.75 17.577 16.185 5.904 5.435 10.968 10.099 11.253 10.363.422.393-.227 4.391-3.544 21.814-3.506 18.415-3.984 21.408-3.497 21.889.61.603-.711 1.26 30.148-14.993l12.9-6.795 3.187 1.699c1.753.935 8.55 4.522 15.104 7.973 6.554 3.45 14.419 7.601 17.478 9.225 6.633 3.52 6.78 3.58 7.3 2.953.286-.345-.772-6.821-3.545-21.707-2.175-11.669-3.954-21.33-3.954-21.468 0-.277 3.054-3.121 22.762-21.194 8.219-7.538 13.385-12.556 13.385-13.001 0-.766-.021-.774-4.568-1.719-1.529-.319-5.998-1.314-9.93-2.213-3.933-.899-10.993-2.496-15.691-3.55-16.023-3.596-19.635-4.421-19.705-4.501-.039-.043-2.404-5.084-5.255-11.201-17.453-37.444-16.365-35.466-17.872-32.498m48.501-1.185c-2.392.462-3.353 4.455-1.516 6.293 2.933 2.933 7.744-.912 5.766-4.608-.401-.75-2.422-2.017-3.047-1.91-.175.029-.716.131-1.203.225m-162.998 1.279c-1.899 1.899-1.499 4.588.866 5.811 1.472.762 3.13.472 4.224-.737 3.268-3.615-1.648-8.516-5.09-5.074m226.963-.457c-3.488 2.74-.11 8.296 3.811 6.268.665-.344 1.393-.969 1.618-1.389 1.804-3.371-2.466-7.208-5.429-4.879m-171.936 8.215c-2.275 2.275-.678 6.175 2.528 6.175 3.249 0 4.94-3.907 2.672-6.175-1.355-1.355-3.845-1.355-5.2 0m116.386 0c-2.268 2.268-.577 6.175 2.672 6.175 2.159 0 3.503-1.371 3.503-3.575 0-3.277-3.869-4.906-6.175-2.6m37.552-.207c-6.906 2.101-11.169 7.86-8.752 11.825 1.801 2.953 6.625 3.606 6.093.825-.179-.936-.385-1.07-1.573-1.025-4.98.187-2.985-4.915 3.202-8.186 4.1-2.168 8.127-.073 5.429 2.823-.762.818-.76.833.208 1.743l.977.917.828-.828c3.716-3.716-1.046-9.726-6.412-8.094m-214.992 3.633c-1.091.636-1.987 2.693-1.691 3.884.83 3.345 5.291 3.977 6.889.977 1.683-3.16-2.079-6.677-5.198-4.861m239.062.793c-2.185 2.597-.692 5.928 2.657 5.928 2.88 0 4.576-2.631 3.294-5.109-1.258-2.433-4.246-2.844-5.951-.819m-186.499 4.97c-2.522 2.122-.935 6.519 2.353 6.519 3.287 0 4.874-4.397 2.352-6.519-.688-.579-1.716-1.028-2.352-1.028-.637 0-1.665.449-2.353 1.028m133.863 0c-2.522 2.122-.935 6.519 2.352 6.519.637 0 1.665-.449 2.353-1.028 2.522-2.122.935-6.519-2.353-6.519-.636 0-1.664.449-2.352 1.028m-169.002 1.788c-3.224 2.536-2.906 6.496.72 8.959 8.087 5.496 14.527 4.819 14.527-1.526 0-4.397-11.796-10.148-15.247-7.433m7.69 3.768c4.952 2.479 5.787 3.406 4.746 5.27-1.494 2.674-12.283-1.885-12.283-5.19 0-2.75 2.157-2.773 7.537-.08m194.58 3.603-7.814 3.382.405 1.16c.49 1.407.181 1.409 3.568-.032 5.644-2.402 6.099-1.777 2.164 2.968l-2.937 3.54.623 1.305c.759 1.591.652 1.67 4.689-3.438 3.535-4.472 3.126-4.315 8.287-3.174 1.955.432 3.606.785 3.668.785s-.177-.607-.53-1.348c-.622-1.305-.787-1.38-4.959-2.274-5.136-1.1-5.1-1.031-1.3-2.535 3.464-1.37 3.475-1.38 2.955-2.747-.498-1.31.231-1.509-8.819 2.408m-225.584-1.876c-3.037 3.037.488 7.813 4.309 5.838 2.441-1.263 2.488-5.164.078-6.41-1.747-.903-3.086-.729-4.387.572m251.007-.553c-2.33 1.265-2.233 5.154.158 6.391 3.821 1.975 7.346-2.801 4.309-5.838-1.298-1.297-2.763-1.479-4.467-.553m-199.951 3.942c-2.381 2.381-.759 6.175 2.64 6.175 2.161 0 3.535-1.361 3.535-3.503 0-3.249-3.908-4.94-6.175-2.672m148.235.072c-2.348 2.348-.793 6.103 2.527 6.103 2.236 0 3.575-1.339 3.575-3.575 0-3.32-3.755-4.875-6.102-2.528m109.048 9.448c-3.542 9.793-27.637 19.309-34.985 13.816l-1.354-1.012.258 1.295c1.592 7.957 1.873 30.736.499 40.351-.343 2.404-.626 4.424-.627 4.489-.002.066.614-.351 1.369-.927 6.844-5.221 23.544-.577 43.271 12.034 3.344 2.138 3.543 1.974 3.271-2.686-.52-8.891-5.492-17.72-15.205-27.001l-4.769-4.558 2.588-3.95c6.695-10.219 9.729-24.651 6.728-32.005l-.524-1.285zm-312.497.013c-2.306 2.306-.677 6.175 2.6 6.175 2.236 0 3.575-1.339 3.575-3.575 0-3.277-3.869-4.906-6.175-2.6m20.653-.358c-6.993 3.451-.349 12.099 9.291 12.093 5.332-.004 8.101-5.576 4.411-8.874l-1.264-1.129-.715 1.091c-.692 1.055-.691 1.112.03 1.725 3.83 3.255-1.304 5.657-7.38 3.452-5.028-1.826-6.537-6.194-2.139-6.194 1.064 0 1.163-.118 1.163-1.39 0-1.611-1.165-1.876-3.397-.774m237.937.358c-2.306 2.306-.677 6.175 2.6 6.175 2.236 0 3.575-1.339 3.575-3.575 0-3.277-3.869-4.906-6.175-2.6m-318.883.482c-.38.38-.322 4.327.102 6.885 1.436 8.67 8.861 19.89 17.977 27.166l1.859 1.484-2.222 3.252c-7.209 10.547-10.339 24.933-7.215 33.152l.404 1.062.754-1.684c4.541-10.142 27.564-19.161 34.905-13.674l1.347 1.006-.24-1.354c-1.057-5.954-1.263-9.51-1.263-21.81 0-12.301.206-15.856 1.263-21.811l.24-1.354-1.429 1.09c-6.896 5.259-23.53.663-43.275-11.959-2.941-1.879-2.829-1.829-3.207-1.451m110.201 1.225c-3.213 2.646-.125 7.894 3.703 6.295 1.596-.667 2.216-1.657 2.216-3.534 0-2.835-3.722-4.571-5.919-2.761m159.102.352c-2.826 2.825.215 7.476 3.886 5.943 1.612-.674 2.216-1.657 2.216-3.606 0-3.134-3.836-4.603-6.102-2.337m28.347 3.704c-4.042 1.024-7.809 1.977-8.37 2.119l-1.022.259 1.179 4.571c1.192 4.623 1.77 5.3 3.38 3.967.073-.061-.247-1.494-.711-3.185-.945-3.445-.939-3.461 1.648-4.087 2.922-.707 2.995-.671 3.532 1.726.461 2.061.541 2.163 1.518 1.93 1.408-.337 1.378-.244.829-2.529-.56-2.335-.454-2.501 1.978-3.092 2.086-.508 2.007-.594 2.958 3.227.714 2.867 1.873 3.78 2.83 2.231.233-.376-1.716-8.383-2.131-8.755-.148-.133-3.577.595-7.618 1.618m-239.951 7.532c-2.125 2.124-1.159 5.476 1.791 6.216 2.616.657 5.075-2.138 4.203-4.778-.898-2.723-3.972-3.46-5.994-1.438m264.291-.457c-2.219 1.724-1.861 5.391.628 6.422 2.462 1.02 5.22-.759 5.22-3.365 0-2.955-3.575-4.824-5.848-3.057m-215.437.996c-2.774 2.13-1.392 6.641 2.033 6.641 2.275 0 3.743-1.402 3.743-3.575 0-2.832-3.595-4.74-5.776-3.066m166.448.507c-2.262 2.408-.568 6.134 2.789 6.134 3.425 0 4.807-4.511 2.033-6.641-1.163-.893-3.763-.62-4.822.507m34.033 6.02c-.654.168-.715.453-.496 2.313l.249 2.122-1.689.208c-.929.114-3.208.307-5.065.429s-4.493.328-5.859.458l-2.483.238v1.344c0 1.6-.423 1.562 8.739.777 6.928-.593 6.738-.656 6.747 2.255.006 1.983.046 2.025 1.539 1.625.986-.264 1.028-2.409.194-9.967-.227-2.065-.359-2.191-1.876-1.802m-231.997 4.186c-.246 1.193-.719 8.234-.555 8.271.336.074 17.215 1.455 17.252 1.411 1.667-1.977-.222-3.016-5.504-3.025l-1.887-.004v-2.337c0-2.065-.101-2.363-.863-2.563-1.307-.341-1.52-.012-1.52 2.342v2.161l-1.689-.006c-2.604-.008-3.372-.32-3.235-1.315.065-.475.2-1.981.299-3.346l.18-2.483h-1.147c-.869 0-1.191.216-1.331.894m-18.64 2.066c-1.409 1.306-1.491 4.038-.157 5.283 3.625 3.384 8.599-1.591 5.095-5.096-1.5-1.5-3.442-1.573-4.938-.187m49.509-.695c-2.637.51-3.674 4.165-1.733 6.107 3.115 3.115 7.835-.446 5.803-4.377-.44-.85-2.857-2.35-3.15-1.955-.022.03-.436.131-.92.225m170.086.285c-2.333.998-2.853 3.983-1.014 5.822 3.308 3.309 8.537-1.3 5.337-4.704-1.371-1.458-2.715-1.806-4.323-1.118m47.049.597c-3.504 3.505 1.47 8.48 5.095 5.096 1.334-1.245 1.252-3.977-.157-5.283-1.496-1.386-3.438-1.313-4.938.187m-265.312 12.228c-3.785 1.384-2.91 7.266 1.082 7.266 2.673 0 4.551-3.2 3.276-5.583-.733-1.368-2.914-2.211-4.358-1.683m46.444.88c-2.791 2.791.275 7.229 4.079 5.903 3.675-1.281 2.475-7.064-1.466-7.064-1.075 0-1.753.302-2.613 1.161m170.805 0c-.694.694-1.161 1.581-1.161 2.205 0 3.758 4.193 5.326 6.597 2.468 2.964-3.522-2.172-7.937-5.436-4.673m48.799-.558c-2.243 1.251-2.585 3.934-.736 5.783 2.42 2.42 5.989.916 5.989-2.524 0-2.883-2.805-4.623-5.253-3.259m-241.477 3.557c-5.981.847-7.49 1.981-7.49 5.63 0 4.3 2.667 5.727 9.232 4.939 6.595-.793 8.775-2.231 8.775-5.791 0-4.44-3.066-5.833-10.517-4.778m7.118 2.814c1.399.98 1.224 3.157-.318 3.955-2.082 1.077-9.631 1.667-10.877.85-2.946-1.93-1.118-4.08 4.118-4.842 4.703-.685 6.057-.678 7.077.037m202.141.838c-.801.802-.225 2.089 1.026 2.29 5.103.819 15.917 1.459 16.233.96 1.228-1.938.99-2.015-9.054-2.908-7.817-.695-7.85-.696-8.205-.342m-185.532 6.121c-2.139 2.542-.655 5.887 2.623 5.916 2.204.019 3.679-1.409 3.679-3.563 0-3.391-4.131-4.933-6.302-2.353m167.126-.271c-2.477 2.131-.88 6.212 2.421 6.187 1.753-.014 2.62-.494 3.342-1.848 1.904-3.575-2.658-7.01-5.763-4.339m-214.719.463c-2.241 1.216-2.585 3.917-.735 5.767 2.95 2.95 7.589-.355 5.797-4.131-1.004-2.115-2.994-2.758-5.062-1.636m263.776-.012c-.584.318-1.255 1.168-1.495 1.895-1.272 3.853 3.128 6.718 5.962 3.884 3.119-3.119-.572-7.894-4.467-5.779m-32.321 4.625c-.329 1.499-.752 1.265 4.825 2.673 7.408 1.87 7.345 1.78 1.925 2.787-8.47 1.574-8.498 1.583-8.77 2.666-.336 1.34-.77 1.16 8.392 3.482l8.216 2.081.36-.946c.198-.521.36-1.073.36-1.227s-2.404-.896-5.343-1.649c-2.938-.753-5.286-1.425-5.217-1.494.07-.07 2.744-.629 5.943-1.243 6.56-1.259 6.027-1.035 6.378-2.676.24-1.121.16-1.26-.848-1.479-.611-.132-4.453-1.121-8.537-2.198l-7.425-1.957zm-178.847 6.488c-3.617 1.571-2.462 6.949 1.493 6.949 3.969 0 5.047-5.453 1.382-6.985-1.583-.661-1.261-.665-2.875.036m159.33-.019c-3.62 1.575-2.436 6.968 1.531 6.968 3.971 0 4.984-5.445 1.299-6.985-1.581-.66-1.269-.662-2.83.017m-210.079 2.779c-2.306 2.306-.677 6.175 2.6 6.175 2.236 0 3.575-1.339 3.575-3.575s-1.339-3.575-3.575-3.575c-1.196 0-1.883.258-2.6.975m258.59 0c-.717.718-.975 1.404-.975 2.6s.258 1.883.975 2.6c.717.718 1.404.975 2.6.975s1.883-.257 2.6-.975c.717-.717.975-1.404.975-2.6s-.258-1.882-.975-2.6c-.717-.717-1.404-.975-2.6-.975s-1.883.258-2.6.975m-228.994.961c-7.237 1.52-9.797 6.327-6.817 12.799l.675 1.467 8.216-2.991 8.216-2.991-.913-2.516c-1.863-5.133-4.545-6.783-9.377-5.768m-40.806 3.672c-4.505 7.279-25.99 9.922-44.78 5.509-2.74-.643-3.469-.528-3.169.502 2.794 9.594 13.19 18.254 27.995 23.32 2.076.711 3.829 1.343 3.896 1.405.066.062-.144 1.16-.469 2.44-3.048 12.034-.667 27.271 5.312 33.999l1.391 1.564.022-2.348c.094-9.937 16.562-26.585 25.499-25.778 1.365.123 2.482.167 2.482.097 0-.069-.913-1.713-2.029-3.652-5.884-10.226-10.253-20.638-13.633-32.49l-1.685-5.912zm45.342-.859c1.02.388 1.963 1.574 2.386 3.002.213.718-.36 1.013-5.619 2.889-6.955 2.482-6.311 2.434-6.887.512-1.123-3.747 5.719-8.076 10.12-6.403m238.811 3.891c-3.08 11.61-9.385 26.43-15.577 36.61-.911 1.499-.957 1.702-.31 1.39 7.612-3.661 23.933 8.709 36.645 27.773 2.066 3.098 2.18 3.07 3.662-.89 3.279-8.762 1.617-21.345-4.425-33.5l-1.923-3.87 3.459-2.251c9.877-6.427 17.709-17.481 18.954-26.752l.293-2.185-1.1 1.096c-7.686 7.66-33.012 7.442-37.594-.322-.444-.753-.84-1.369-.879-1.369-.04 0-.582 1.921-1.205 4.27m-217.667 1.787c-2.45 2.204-.853 6.256 2.465 6.256 3.249 0 4.94-3.907 2.673-6.175-1.304-1.303-3.737-1.342-5.138-.081m148.1.081c-1.379 1.379-1.346 3.71.073 5.128 2.347 2.348 6.102.793 6.102-2.528 0-1.195-.257-1.882-.975-2.6-.717-.717-1.404-.975-2.6-.975-1.195 0-1.882.258-2.6.975m-198.251 2.597c-2.324.938-2.837 4.121-.967 5.992 2.799 2.799 7.218-.082 5.962-3.887-.663-2.008-2.899-2.951-4.995-2.105m250.04.194c-2.29 1.286-2.235 5.173.09 6.376 1.737.898 3.078.721 4.377-.578 3.062-3.062-.683-7.923-4.467-5.798m-34.045 2.045c-.606 1.329-1.297.867 7.657 5.119l7.729 3.67.479-1.155c.594-1.434 1.486-.836-7.548-5.064-9.063-4.242-7.741-3.834-8.317-2.57m-180.968 4.285c-2.278 2.917-2.764 3.348-3.396 3.01-2.827-1.513-7.145 1.105-7.145 4.333 0 1.176 2.332 6.078 3.398 7.145.088.087 3.546-1.868 7.686-4.344l7.527-4.503-.58-1.122c-.66-1.275-.464-1.33-4.867 1.363-1.39.85-2.572 1.49-2.628 1.423-1.19-1.434-1.059-1.95 1.222-4.812 1.252-1.571 2.402-3.035 2.555-3.254.153-.218-.035-.903-.417-1.521l-.696-1.124zm22.459 1.261c-2.522 2.121-.935 6.518 2.353 6.518.636 0 1.664-.449 2.352-1.028 2.522-2.122.935-6.519-2.352-6.519-.637 0-1.665.449-2.353 1.029m133.863 0c-2.522 2.121-.935 6.518 2.352 6.518.637 0 1.665-.449 2.353-1.028 2.522-2.122.935-6.519-2.353-6.519-.636 0-1.664.449-2.352 1.029m20 2.732c-.371.567-.606 1.089-.522 1.16.085.071 2.343 1.588 5.019 3.372 2.677 1.783 4.866 3.292 4.866 3.352s-2.936-.333-6.525-.875c-6.739-1.017-7.774-.941-7.774.575 0 .287 3.172 2.682 7.05 5.323l7.051 4.801.695-.848c1.023-1.247 1.058-1.206-3.682-4.34-2.407-1.591-4.302-2.968-4.211-3.058.09-.091 2.792.239 6.003.733l5.839.899.748-.973c.411-.535.751-1.078.756-1.207.007-.194-13.495-9.424-14.365-9.82-.15-.068-.577.34-.948.906m-180.194 1.701c.439.382 1.092 1.167 1.451 1.745l.654 1.049-2.302 1.41-2.301 1.41-.892-1.466c-1.893-3.113.798-6.405 3.39-4.148m-26.829.993c-1.685 1.805-1.343 4.767.674 5.847 4.02 2.152 7.645-3.455 4.029-6.232-1.095-.84-3.762-.622-4.703.385m239.605.157c-2.778 2.997.978 7.634 4.609 5.69 1.14-.61 2.074-2.672 1.768-3.904-.718-2.896-4.394-3.926-6.377-1.786m-177.954 3.896c-1.78 1.781-1.181 4.999 1.11 5.962 2.517 1.058 5.065-.628 5.065-3.351 0-3.189-3.934-4.852-6.175-2.611m116.458.073c-2.844 2.844.3 7.452 4.018 5.889 1.486-.625 2.085-1.645 2.085-3.552 0-3.134-3.837-4.603-6.103-2.337m-140.972 7.983-5.069 7.428 1.016 1.006 1.016 1.006 7.384-3.769c9.215-4.704 8.905-4.483 7.825-5.578l-.84-.852-1.634.833-1.633.833-1.388-1.493c-1.666-1.792-1.685-1.959-.418-3.676l.992-1.344-.863-.918c-1.193-1.27-.784-1.688-6.388 6.524m-29.777-.88c-2.244 1.25-2.585 3.934-.736 5.783 2.614 2.614 6.803.342 6.104-3.312-.434-2.27-3.334-3.605-5.368-2.471m227.1-.228c-1.957.801-2.837 3.011-1.999 5.018 1.025 2.454 3.857 2.939 5.803.993 2.845-2.845-.115-7.521-3.804-6.011m-162.066.502c-3.567 2.046-1.468 7.619 2.566 6.812 3.99-.798 3.576-7.317-.462-7.28-.72.007-1.667.217-2.104.468m95.712.495c-1.971 1.971-.873 5.778 1.822 6.317 4.078.816 6.156-4.879 2.492-6.83-1.446-.771-3.244-.557-4.314.513m26.545 1.107c-3.945 4.013-3.713 7.819.735 12.099 4.179 4.021 7.617 4.215 11.471.647 2.999-2.776 3.358-1.906-3.611-8.748-7.143-7.014-6.105-6.532-8.595-3.998m-151.783 1.148c-.146.138-1.695 1.028-3.443 1.977l-3.178 1.726 1.951-2.771c1.073-1.525 2.128-3.001 2.344-3.281.302-.392.647-.208 1.492.794.605.717.98 1.417.834 1.555m158.588 4.725 4.404 4.38-1.297 1.181c-4.1 3.733-12.444-4.235-9.202-8.788 1.17-1.643 1.23-1.611 6.095 3.227m-118.505-.571c-1.583 1.331-1.698 3.538-.271 5.196 2.178 2.532 6.199.822 6.199-2.637 0-1.838-1.743-3.588-3.575-3.588-.637 0-1.664.449-2.353 1.029m74.28 0c-1.583 1.331-1.698 3.538-.271 5.196 2.178 2.532 6.199.822 6.199-2.637 0-1.838-1.743-3.588-3.575-3.588-.637 0-1.664.449-2.353 1.029m-104.381 2.531c-3.133 1.91-7.933 9.298-7.42 11.419 1.735 7.173 9.909 4.635 14.596-4.532 2.459-4.809-2.609-9.672-7.176-6.887m-37.898 1.405c-3.209 1.744-1.827 6.952 1.844 6.952 2.944 0 4.842-3.609 3.057-5.813-1.396-1.724-3.097-2.119-4.901-1.139m211.276.024c-2.242 1.216-2.586 3.917-.736 5.767 2.811 2.811 7.269.075 6.024-3.697-.755-2.288-3.155-3.228-5.288-2.07m-131.607.753c-2.306 2.306-.677 6.175 2.6 6.175 2.236 0 3.575-1.339 3.575-3.576 0-3.227-3.905-4.87-6.175-2.599m50.446 0c-.717.717-.975 1.404-.975 2.6s.258 1.883.975 2.6c.718.717 1.405.975 2.6.975 1.196 0 1.883-.258 2.6-.975.718-.717.975-1.404.975-2.6s-.257-1.883-.975-2.6c-.717-.717-1.404-.975-2.6-.975-1.195 0-1.882.258-2.6.975m-87.568.217c1.404 1.404.913 2.644-2.907 7.348-2.822 3.475-4.308 4.16-5.9 2.719-1.205-1.09-.843-2.317 1.665-5.645 3.834-5.088 5.466-6.098 7.142-4.422m124.932.787c-.491.542-.592.943-.324 1.291.213.277 2.591 3.274 5.285 6.66 2.693 3.387 4.946 6.222 5.008 6.302.061.079.563-.211 1.115-.645l1.003-.789-5.381-6.803c-5.785-7.314-5.645-7.188-6.706-6.016m-75.311 1.963c-2.969 2.969.332 7.6 4.132 5.797 2.47-1.173 2.877-3.989.866-6-1.392-1.392-3.488-1.307-4.998.203m25.65-.203c-2.114 2.114-1.5 5.303 1.192 6.191 3.776 1.246 6.599-3.195 3.806-5.988-1.51-1.51-3.606-1.595-4.998-.203m-11.925.39c-3.542 1.544-2.296 6.993 1.599 6.993 4.031 0 5.125-5.788 1.343-7.107-1.526-.532-1.451-.535-2.942.114m54.151 2.86c-1.062.557-1.067.58-.531 2.362.525 1.744.512 1.816-.417 2.381-.527.32-1.432.871-2.011 1.226-1.032.631-1.075.616-2.289-.83l-1.237-1.474-1.248.716-1.248.716 6.168 6.47c6.446 6.76 6.641 6.9 8.036 5.771l.861-.698-2.388-8.486c-2.755-9.788-2.338-8.868-3.696-8.154m-171.109 1.771c-.073 8.131-17.289 18.199-38.345 22.423-4.7.943-4.732.994-2.168 3.591 6.368 6.449 17.304 9.688 31.043 9.193l6.233-.224.448 2.26c2.76 13.919 8.951 24.413 17.283 29.296 2.172 1.273 2.306 1.202 1.58-.836-3.568-10.017 5.798-31.82 14.59-33.962l1.879-.457-2.872-2.209c-9.936-7.643-21.348-19.261-28.778-29.296l-.881-1.19zm63.482-.609c-2.122 1.153-3.403 5.832-1.858 6.787.223.137-.296.564-1.153.947-2.591 1.16-3.67 4.463-2.107 6.449 1.062 1.351 5.599 4.018 6.057 3.56.764-.765 8.593-14.551 8.42-14.829-1.222-1.978-7.49-3.929-9.359-2.914m169.871 4.042c-5.737 7.585-19.917 21.472-27.101 26.542-2.025 1.429-2.104 1.779-.406 1.79 8.118.055 17.453 16.51 22.36 39.415.793 3.703.67 3.683 3.624.596 6.296-6.577 9.056-15.931 8.807-29.849l-.127-7.109 3.77-.759c12.337-2.483 21.604-8.059 27.255-16.399 1.669-2.464 1.764-3.279.267-2.298-1.399.916-8.557.9-12.719-.03-11.998-2.68-21.956-9.551-21.956-15.15 0-1.561-.383-1.231-3.774 3.251m-213.872-1.213c-2.702 2.415-1.068 6.498 2.601 6.498.581 0 1.495-.49 2.166-1.161 3.335-3.335-1.256-8.475-4.767-5.337m48.682-.223c1.621 1.002 1.617.749.054 3.592-1.472 2.678-1.35 2.622-3.124 1.426-3.564-2.401-.583-7.275 3.07-5.018m144.703.335c-2.992 2.992.286 7.7 4.139 5.945 2.264-1.032 2.628-4.27.676-6.014-1.645-1.471-3.299-1.448-4.815.069m-39.986 5.881c1.289 4.3 1.335 4.275-1.677.887-1.37-1.542-2.426-2.861-2.345-2.931.278-.242 2.53-1.392 2.756-1.408.124-.008.694 1.545 1.266 3.452m-108.145 1.22.883.715-1.278 2.078-1.278 2.077-1.25-.727c-1.473-.857-1.826-2.434-.872-3.891.771-1.176 2.511-1.292 3.795-.252m44.261 1.003c-9.032 4.303-6.209 14.269 6.585 23.255l2.859 2.007 2.903-1.959c9.034-6.096 13.097-12.287 11.551-17.603-1.688-5.806-7.152-8.051-12.35-5.075l-1.976 1.132-2.02-1.14c-2.898-1.635-5.047-1.811-7.552-.617m-80.175 1.49c-2.106 2.502-.519 5.928 2.745 5.928 3.359 0 4.951-3.65 2.612-5.989-1.664-1.665-3.927-1.639-5.357.061m174.115-.061c-1.481 1.48-1.526 3.111-.133 4.767 2.147 2.551 6.519.932 6.519-2.414 0-1.749-1.896-3.514-3.774-3.514-1.074 0-1.753.301-2.612 1.161m-163.39 8.402c-1.393 1.656-1.348 3.287.132 4.767 2.218 2.218 5.747 1.065 6.241-2.038.553-3.478-4.075-5.459-6.373-2.729m152.532 0c-1.393 1.656-1.348 3.287.133 4.767 3.364 3.364 8.416-1.131 5.357-4.767-.856-1.017-1.315-1.222-2.745-1.222-1.429 0-1.889.205-2.745 1.222m-140.487 6.437c-2.773 2.13-1.392 6.641 2.034 6.641 2.274 0 3.742-1.402 3.742-3.575 0-2.832-3.595-4.74-5.776-3.066m129.11.507c-2.263 2.408-.569 6.134 2.788 6.134 3.426 0 4.807-4.511 2.034-6.641-1.164-.893-3.764-.62-4.822.507m-117.376 5.918c-2.306 2.306-.676 6.175 2.6 6.175 2.236 0 3.575-1.339 3.575-3.575s-1.339-3.575-3.575-3.575c-1.195 0-1.882.257-2.6.975m105.264 0c-.718.717-.975 1.404-.975 2.6 0 1.195.257 1.882.975 2.6.717.717 1.404.975 2.6.975 1.195 0 1.882-.258 2.6-.975.717-.718.975-1.405.975-2.6 0-1.196-.258-1.883-.975-2.6-.718-.718-1.405-.975-2.6-.975-1.196 0-1.883.257-2.6.975m-90.946 3.678c-3.913.947-3.265 7.263.746 7.263 4.098 0 5.355-5.424 1.618-6.985-.74-.309-1.395-.541-1.457-.516s-.47.133-.907.238m79.376.305c-3.624 1.548-2.434 6.958 1.531 6.958 2.206 0 3.503-1.364 3.503-3.686 0-2.808-2.427-4.386-5.034-3.272m-114.795 1.416c.967 3.539.529 6.25-1.734 10.733-3.503 6.939-13.624 17-25.309 25.159-3.887 2.714-3.798 2.425-1.126 3.648 9.507 4.353 22.035 2.492 38.387-5.699.122-.061 1.431 1.679 2.911 3.866 6.948 10.27 16.947 17.257 26.461 18.489l2.185.283-1.001-.94c-8.057-7.565-7.827-33.858.332-38.045l1.385-.71-3.337-.878c-12.463-3.278-27.409-9.551-37.665-15.808l-1.755-1.071zm151.008.222c-9.673 5.935-25.451 12.541-37.442 15.675l-3.284.858 1.695 1.086c7.068 4.531 9.211 20.507 5.615 41.862-1.158 6.876-1.296 6.351 1.419 5.394 8.744-3.079 16.582-12.698 21.502-26.387.942-2.622 1.749-4.822 1.793-4.891.045-.068 1.485.166 3.201.521 12.77 2.638 26.573.384 33.239-5.428l1.518-1.324-2.12-.058c-10.511-.287-27.398-17.513-25.76-26.279.426-2.281.533-2.201-1.376-1.029m-103.531 1.95c-2.158 1.173-2.269 4.268-.215 5.996 3.522 2.964 7.937-2.173 4.673-5.437-1.296-1.295-2.763-1.479-4.458-.559m53.254.559c-2.227 2.227-1.065 5.747 2.062 6.244 3.719.592 5.662-5.091 2.33-6.814-1.752-.906-3.089-.732-4.392.57m-39.735 1.421c-2.072 1.125-2.447 4.422-.686 6.016 1.243 1.125 4.156 1.007 5.14-.207 2.755-3.404-.667-7.867-4.454-5.809m27.011 0c-2.046 1.111-2.412 3.806-.791 5.809 1.097 1.354 4.148 1.354 5.245 0 2.755-3.404-.667-7.867-4.454-5.809m-14.286 1.36c-2.814 2.813.14 7.275 3.938 5.951 3.798-1.323 2.718-7.113-1.326-7.113-1.075 0-1.753.302-2.612 1.162m-20.004 13.979c.186.302.728 1.128 1.206 1.834 4.471 6.61-1.557 26.061-13.509 43.593l-1.077 1.58 1.116.327c7.755 2.265 22.26-5.501 32.781-17.552l2.223-2.546 1.527 1.177c9.518 7.339 23.579 11.015 33.154 8.669 2.849-.698 2.89-.726 1.716-1.146-10.499-3.757-20.313-28.579-14.13-35.738.625-.724.585-.741-1.146-.487-12.442 1.826-30.274 1.826-42.447.001-1.433-.215-1.69-.163-1.414.288" fill="#d6b268"/><path d="m189.275 52.686c-13.981 1.465-18.91 2.208-23.436 3.532-11.466 3.355-15.179 4.578-20.589 6.784-6.658 2.714-10.47 4.538-16.327 7.814-1.98 1.107-4.583 2.541-5.785 3.186-2.306 1.238-8.264 5.25-8.937 6.018-.219.249-1.828 1.536-3.575 2.861-8.821 6.685-20.027 17.951-26.611 26.752-1.063 1.42-2.28 2.922-2.705 3.338-.813.796-5.838 8.312-5.838 8.732 0 .135-1.107 2.166-2.46 4.514-25.287 43.894-25.488 99.809-.517 143.892.928 1.639 2.249 4.016 2.934 5.284 1.371 2.535 5.411 8.556 6.174 9.203.265.225 1.988 2.375 3.829 4.778 4.164 5.437 17.438 18.824 23.009 23.205 2.294 1.804 4.618 3.682 5.164 4.173 1.463 1.314 7.776 5.519 10.578 7.046 10.072 5.487 13.07 6.999 18.274 9.222 19.68 8.405 35.352 11.55 57.543 11.55 26.126 0 48.082-5.508 69.907-17.539 2.624-1.446 5.575-3.062 6.558-3.591 2.221-1.196 8.594-5.488 9.93-6.688.546-.491 2.87-2.371 5.164-4.179 5.434-4.282 18.056-16.897 22.216-22.206 1.798-2.294 3.669-4.617 4.158-5.163 1.372-1.536 5.158-7.103 6.482-9.534.654-1.201 2.467-4.507 4.027-7.345 23.774-43.23 23.493-97.875-.723-140.833-1.13-2.004-2.589-4.633-3.243-5.841-1.384-2.558-4.89-7.824-5.844-8.779-.362-.362-1.54-1.82-2.618-3.24-6.91-9.101-17.86-20.097-26.64-26.751-1.747-1.325-3.356-2.612-3.575-2.861-.672-.767-6.629-4.779-8.937-6.019-1.202-.646-4.062-2.221-6.356-3.5-11.816-6.589-29.746-13.26-42.105-15.665-8.505-1.656-31.689-2.929-39.126-2.15m12.068 8.926c3.782 1.319 2.688 7.107-1.343 7.107-3.895 0-5.141-5.449-1.599-6.993 1.491-.649 1.416-.646 2.942-.114m-13.283.742c1.294.492 2.406 2.74 2.053 4.148-.836 3.331-5.294 3.93-6.85.921-1.664-3.218 1.333-6.385 4.797-5.069m28.132.842c3.014 3.688-1.913 8.482-5.268 5.126-1.688-1.688-1.179-5.089.893-5.965 1.336-.564 3.579-.134 4.375.839m-40.323 2.155c1.305 1.503 1.197 3.523-.267 4.987-1.857 1.857-5.074 1.232-5.903-1.146-1.371-3.931 3.472-6.945 6.17-3.841m53.344-.306c1.91 1.707 1.689 4.771-.423 5.863-1.752.906-3.089.733-4.392-.57-3.402-3.402 1.231-8.497 4.815-5.293m-66.781 3.511c2.071 1.742 1.577 4.887-.932 5.935-2.612 1.092-4.996-.472-4.996-3.277 0-3.405 3.289-4.879 5.928-2.658m80.089-.054c1.33 1.331 1.373 4.087.081 5.257-2.604 2.356-6.256.737-6.256-2.775 0-3.063 3.99-4.667 6.175-2.482m-92.553 4.767c2.306 2.306.677 6.175-2.6 6.175-2.236 0-3.575-1.339-3.575-3.575s1.339-3.575 3.575-3.575c1.196 0 1.883.258 2.6.975m105.264 0c2.306 2.306.676 6.175-2.6 6.175-2.236 0-3.575-1.339-3.575-3.575s1.339-3.575 3.575-3.575c1.195 0 1.882.258 2.6.975m-117.527 5.934c2.506 2.156.818 6.216-2.573 6.187-1.609-.014-2.483-.521-3.19-1.848-1.904-3.575 2.658-7.01 5.763-4.339m129.787.271c2.139 2.542.655 5.887-2.624 5.916-2.204.019-3.678-1.409-3.678-3.563 0-3.391 4.131-4.933 6.302-2.353m-65.307 2.75v1.192h-3.377-3.376v2.383 2.384h2.383 2.384v1.191 1.192h-2.384-2.383v3.972 3.972h-1.192-1.191v-8.738-8.739h4.568 4.568zm16.248.228c1.866 1.57 2.176 3.381 1.461 8.527-.886 6.367-2.219 8.326-5.667 8.326-4.962 0-6.375-4.171-4.451-13.141.95-4.432 5.489-6.378 8.657-3.712m-4.241 1.23c-1.833.737-3.354 11.111-1.85 12.615 2.264 2.265 3.973.225 4.747-5.666.766-5.826-.161-8.05-2.897-6.949m-88.084 2.614c2.597 2.256 1.079 6.256-2.374 6.256-3.36 0-4.952-3.65-2.613-5.989 1.465-1.464 3.485-1.573 4.987-.267m43.714 6.256c2.138 8.027 1.717 7.565 5.816 6.393l2.646-.756.255 1.012c.139.557.11 1.149-.066 1.315-.485.458-8.151 2.41-8.423 2.145-.858-.833-4.653-16.681-4.056-16.933 1.76-.743 1.862-.561 3.828 6.824m65.17-6.355c3.309 1.121 4.123 1.607 4.764 2.846 1.29 2.495.084 5.88-2.525 7.084l-1.291.596.261 4.295.261 4.295-1.349-.55-1.349-.549-.114-4.059c-.114-4.107-.453-4.822-2.283-4.822-.088 0-.634 1.564-1.213 3.475-1.313 4.336-1.147 4.103-2.58 3.604-.853-.298-1.138-.604-.97-1.041.131-.341 1.344-4.073 2.695-8.294 1.352-4.221 2.657-7.675 2.902-7.675s1.501.358 2.791.795m43.887.366c1.48 1.481 1.525 3.112.132 4.767-2.147 2.551-6.518.933-6.518-2.414 0-1.749 1.895-3.514 3.773-3.514 1.075 0 1.753.302 2.613 1.161m-46.067 4.065c-.927 2.744-.852 2.91 1.513 3.365 3.269.629 4.995-3.823 1.926-4.971-2.659-.995-2.542-1.049-3.439 1.606m-76.059 1.178c1.612 1.562 4.595 8.197 4.801 10.677.354 4.276-4.339 6.949-7.996 4.552-1.559-1.021-5.098-8.43-5.285-11.063-.348-4.906 5.004-7.535 8.48-4.166m-4.972 1.396c-2.862 2.004 2.845 13.71 5.862 12.025 1.77-.989 1.61-2.803-.673-7.643-2.318-4.913-3.276-5.722-5.189-4.382m-36.027 1.764c1.393 1.655 1.348 3.286-.133 4.767-1.664 1.664-3.927 1.639-5.357-.061-2.106-2.502-.519-5.928 2.745-5.928 1.429 0 1.889.204 2.745 1.222m173.982 0c3.059 3.635-1.993 8.131-5.357 4.767-2.339-2.339-.747-5.989 2.612-5.989 1.43 0 1.889.204 2.745 1.222m-27.587 2.941c2.312 1.195 3.595 3.864 2.828 5.882-.653 1.719-2.843.779-2.539-1.092.8-4.931-4.754-3.127-7.765 2.522-2.419 4.539-.74 8.644 2.55 6.231.672-.493.86-.485 1.466.062 2.31 2.083-2.953 4.174-5.577 2.215-6.306-4.709 2.093-19.412 9.037-15.82m-122.844 2.971c1.842 1.122 2.647 2.909 2.369 5.254l-.227 1.919 3.159 2.214c3.478 2.438 3.572 2.581 2.238 3.455-.879.576-1.066.497-4.071-1.725-3.449-2.55-3.637-2.622-4.76-1.801-.739.541-.689.677 1.314 3.545 1.146 1.641 2.083 3.179 2.083 3.419 0 .439-1.878 1.484-2.117 1.179-1.133-1.449-9.402-13.958-9.402-14.223 0-.202 1.283-1.188 2.851-2.191 3.181-2.035 4.576-2.257 6.563-1.045m-4.75 2.609-1.479 1.005 1.443 2.173c1.693 2.551 1.538 2.508 3.424.953 3.362-2.771.23-6.589-3.388-4.131m-28.864.554c3.402 3.402-1.232 8.497-4.815 5.294-.867-.776-1.233-1.471-1.259-2.395-.102-3.611 3.597-5.376 6.074-2.899m192.757-.72c2.264 1.031 2.628 4.269.676 6.014-1.645 1.471-3.299 1.447-4.815-.069-2.992-2.992.286-7.701 4.139-5.945m-19.6 8.086c3.124 3.252.357 9.104-4.002 8.464-1.082-.159-1.161-.044-2.579 3.736-1.618 4.312-1.549 4.237-2.793 3.069l-.885-.831 1.581-3.799 1.581-3.798-.827-.827-.827-.827-2.675 2.876-2.675 2.876-.931-.79-.931-.79 5.851-6.551 5.85-6.55 1.436 1.147c.79.631 2.061 1.799 2.826 2.595m-76.236-1.011c2.799 2.799-.081 7.218-3.886 5.962-3.852-1.271-2.805-7.123 1.274-7.123 1.075 0 1.753.302 2.612 1.161m-80.042 2.386-1.532 1.569 5.209 5.486 5.208 5.486-.993.993-.993.993-5.209-5.487-5.209-5.486-1.449 1.415c-1.651 1.613-2.026 1.701-2.939.692-.618-.683-.426-.947 3.529-4.839l4.183-4.116.863.863.863.863zm66.31-2.129c2.397 1.138 2.776 3.984.794 5.965-2.985 2.985-8.12-1.579-5.455-4.848 1.44-1.767 2.67-2.062 4.661-1.117m25.431-.149c3.508 1.599 2.28 7.073-1.587 7.073-3.799 0-5.081-5.482-1.633-6.984 1.533-.667 1.926-.678 3.22-.089m59.059 2.421c-2.053 2.092-2.059 2.289-.11 3.64 3.236 2.243 6.154-.986 3.561-3.939-1.533-1.746-1.437-1.754-3.451.299m-176.418 1.444c1.493 1.493 1.573 3.442.202 4.921-1.91 2.061-4.921 1.694-6.082-.741-1.814-3.804 2.903-7.157 5.88-4.18m80.425-.186c2.303 2.303.625 6.174-2.676 6.174-2.156 0-3.499-1.372-3.499-3.574 0-3.277 3.869-4.906 6.175-2.6m50.446 0c2.306 2.305.677 6.174-2.6 6.174-2.236 0-3.575-1.338-3.575-3.574 0-3.277 3.869-4.906 6.175-2.6m79.879-.395c2.27 1.589 2.013 5.275-.45 6.45-2.49 1.187-5.365-.564-5.365-3.269 0-2.881 3.506-4.799 5.815-3.181m-142.161 5.201c1.371 1.558 1.227 3.798-.328 5.107-3.302 2.778-7.767-1.333-5.29-4.87 1.332-1.902 4.053-2.016 5.618-.237m74.28 0c1.371 1.558 1.227 3.798-.328 5.107-3.302 2.778-7.767-1.333-5.29-4.87 1.332-1.902 4.053-2.016 5.618-.237m49.908 3.308c.76.839.979.599-8.1 8.895l-4.171 3.811-.937-.92-.936-.919 1.731-1.584c.952-.871 3.786-3.475 6.299-5.787 4.914-4.523 5.092-4.625 6.114-3.496m-83.175.472c61.877 5.732 91.44 79.163 50.68 125.881-43.497 49.856-125.698 23.763-132.881-42.18-5.145-47.229 34.969-88.075 82.201-83.701m-91.901 5.19c3.028 2.214 6.179 4.514 7.002 5.111 1.477 1.071 1.488 1.097.78 1.971l-.717.885-5.745-1.061c-3.159-.584-6.191-1.158-6.738-1.277-.566-.123 1.16 1.382 4.023 3.506 4.895 3.631 5.001 3.742 4.42 4.614-.327.492-.76.894-.961.894-.288 0-12.629-8.786-13.963-9.941-.178-.155.094-.768.606-1.363l.931-1.082 5.492 1.049c3.021.576 5.658.993 5.86.925.203-.067-1.593-1.53-3.991-3.25-4.359-3.128-4.359-3.128-3.686-4.055.912-1.257.519-1.437 6.687 3.074m39.766-2.585c2.006 2.212.544 6.106-2.292 6.106-2.385 0-3.931-1.371-3.952-3.502-.034-3.571 3.885-5.205 6.244-2.604m95.44-.842c2.669 1.381 2.736 5.091.117 6.486-3.592 1.913-7.027-2.386-4.486-5.615.694-.883 1.193-1.127 2.891-1.416.175-.03.84.215 1.478.545m-161.096.42c2.618 1.715 1.72 6.047-1.396 6.731-1.297.285-3.328-.628-3.939-1.77-1.783-3.331 2.188-7.023 5.335-4.961m227.057.539c1.899 1.899 1.499 4.588-.866 5.811-1.472.762-3.13.472-4.224-.737-3.261-3.606 1.656-8.508 5.09-5.074m-171.413 7.758c2.268 2.268.577 6.175-2.672 6.175-2.159 0-3.503-1.371-3.503-3.575 0-3.277 3.869-4.906 6.175-2.6m116.386 0c2.275 2.275.678 6.175-2.528 6.175-3.249 0-4.94-3.907-2.672-6.175 1.355-1.355 3.845-1.355 5.2 0m37.4.201c2.574 1.569 3.313 5.737 1.364 7.686l-.828.828-.977-.917c-.968-.91-.97-.925-.208-1.743 2.698-2.896-1.329-4.991-5.429-2.823-6.187 3.271-8.182 8.373-3.202 8.186 1.188-.045 1.394.089 1.573 1.025.532 2.781-4.292 2.128-6.093-.825-3.405-5.584 7.954-14.982 13.8-11.417m-215.408 4.018c2.191 2.604.65 5.889-2.775 5.916-2.752.021-4.432-2.668-3.18-5.089 1.266-2.449 4.242-2.862 5.955-.827m238.985-.813c1.14.61 2.074 2.672 1.768 3.904-.718 2.897-4.394 3.926-6.377 1.786-2.778-2.997.978-7.633 4.609-5.69m-186.349 5.783c2.522 2.122.935 6.519-2.352 6.519-.637 0-1.665-.449-2.353-1.028-2.522-2.122-.935-6.519 2.353-6.519.636 0 1.664.449 2.352 1.028m133.863 0c2.522 2.122.935 6.519-2.353 6.519-.636 0-1.664-.449-2.352-1.028-2.522-2.122-.935-6.519 2.352-6.519.637 0 1.665.449 2.353 1.028m-164.935 2.967c7.207 3.578 8.779 8.38 3.664 11.189-3.914 2.149-14.655-3.677-14.664-7.954-.01-5.321 4.266-6.579 11-3.235m-7.825 1.169c-1.862 1.862-.64 3.489 4.516 6.011 4.572 2.236 6.024 2.378 6.973.679 1.041-1.864.206-2.791-4.746-5.27-4.873-2.439-5.575-2.587-6.743-1.42m210.142 2.615c.52 1.367.509 1.377-2.955 2.747-3.8 1.504-3.836 1.435 1.3 2.535 4.172.894 4.337.969 4.959 2.274.353.741.592 1.348.53 1.348s-1.713-.353-3.668-.785c-5.161-1.141-4.752-1.298-8.287 3.174-4.037 5.108-3.93 5.029-4.689 3.438l-.623-1.305 2.937-3.54c3.935-4.745 3.48-5.37-2.164-2.968-3.387 1.441-3.078 1.439-3.568.032l-.405-1.16 7.814-3.382c9.05-3.917 8.321-3.718 8.819-2.408m-230.016-.04c2.41 1.246 2.363 5.147-.078 6.41-3.821 1.975-7.346-2.801-4.309-5.838 1.301-1.301 2.64-1.475 4.387-.572m251.087.572c1.414 1.414 1.554 3.395.349 4.928-1.705 2.167-5.403 1.587-6.301-.989-1.326-3.804 3.135-6.756 5.952-3.939m-199.291 3.461c2.331 2.331.793 6.103-2.487 6.103-3.399 0-5.021-3.794-2.64-6.175 1.379-1.379 3.709-1.346 5.127.072m148.235-.072c2.306 2.306.677 6.175-2.6 6.175-2.204 0-3.575-1.343-3.575-3.503 0-3.249 3.908-4.94 6.175-2.672m-203.376 9.533c2.306 2.306.677 6.175-2.6 6.175-2.236 0-3.575-1.339-3.575-3.575 0-3.277 3.869-4.906 6.175-2.6m18.85.416c0 1.272-.099 1.39-1.163 1.39-4.398 0-2.889 4.368 2.139 6.194 6.076 2.205 11.21-.197 7.38-3.452-.721-.613-.722-.67-.03-1.725l.715-1.091 1.264 1.129c3.69 3.298.921 8.87-4.411 8.874-8.164.005-14.102-5.403-11.244-10.241 1.567-2.652 5.35-3.415 5.35-1.078m239.74-.416c2.306 2.306.677 6.175-2.6 6.175-2.236 0-3.575-1.339-3.575-3.575 0-3.277 3.869-4.906 6.175-2.6m-209.01 2.059c2.85 2.849-.219 7.475-3.931 5.924-2.537-1.06-3.058-4.533-.941-6.276 1.3-1.072 3.616-.904 4.872.352m159.357-.073c2.794 2.793-.325 7.533-3.958 6.016-1.596-.667-2.216-1.657-2.216-3.534 0-3.063 3.989-4.667 6.174-2.482m32.141 6.492c1.116 4.422 1.101 4.661-.325 4.934-.882.168-.999-.022-1.677-2.743-.951-3.821-.872-3.735-2.958-3.227-2.432.591-2.538.757-1.978 3.092.549 2.285.579 2.192-.829 2.529-.977.233-1.057.131-1.518-1.93-.537-2.397-.61-2.433-3.532-1.726-2.587.626-2.593.642-1.648 4.087.464 1.691.784 3.124.711 3.185-1.61 1.333-2.188.656-3.38-3.967l-1.179-4.571 1.022-.259c.561-.142 4.328-1.095 8.37-2.119 8.537-2.161 7.62-2.44 8.921 2.715m-244.28 4.284c1.477.967 1.995 2.998 1.196 4.682-1.164 2.452-3.987 2.852-5.991.848-2.972-2.972 1.257-7.849 4.795-5.53m264.386.533c2.125 2.124 1.159 5.476-1.791 6.216-2.644.663-5.117-2.121-4.211-4.74.959-2.771 3.968-3.511 6.002-1.476m-215.454.981c2.532 2.178.822 6.199-2.637 6.199-3.425 0-4.807-4.511-2.033-6.641 1.084-.832 3.449-.608 4.67.442m166.6-.442c2.774 2.13 1.392 6.641-2.033 6.641-3.357 0-5.051-3.726-2.789-6.134 1.059-1.127 3.659-1.4 4.822-.507m31.087 8.329c.834 7.558.792 9.703-.194 9.967-1.493.4-1.533.358-1.539-1.625-.009-2.911.181-2.848-6.747-2.255-9.162.785-8.739.823-8.739-.777v-1.344l2.483-.238c1.366-.13 4.002-.336 5.859-.458s4.136-.315 5.065-.429l1.689-.208-.249-2.122c-.219-1.86-.158-2.145.496-2.313 1.517-.389 1.649-.263 1.876 1.802m-231.575 3.973c-.099 1.365-.234 2.871-.299 3.346-.137.995.631 1.307 3.235 1.315l1.689.006v-2.161c0-2.354.213-2.683 1.52-2.342.762.2.863.498.863 2.563v2.337l1.887.004c5.282.009 7.171 1.048 5.504 3.025-.037.044-16.916-1.337-17.252-1.411-.164-.037.309-7.078.555-8.271.14-.678.462-.894 1.331-.894h1.147zm-16 .664c3.504 3.505-1.47 8.48-5.095 5.096-1.334-1.245-1.252-3.977.157-5.283 1.496-1.386 3.438-1.313 4.938.187m46.794-.721c3.782 1.319 2.688 7.107-1.343 7.107-4.199 0-4.983-6.474-.88-7.268.484-.094.898-.195.92-.225s.608.144 1.303.386m172.186 1.242c3.2 3.404-2.029 8.013-5.337 4.704-1.839-1.839-1.319-4.824 1.014-5.822 1.608-.688 2.952-.34 4.323 1.118m47.664-.708c1.409 1.306 1.491 4.038.157 5.283-3.625 3.384-8.599-1.591-5.095-5.096 1.5-1.5 3.442-1.573 4.938-.187m-267.461 12.734c2.316 1.198 2.698 3.905.817 5.786-2.42 2.42-5.989.916-5.989-2.524 0-2.99 2.567-4.609 5.172-3.262m48.88.561c2.589 2.589.282 6.792-3.347 6.098-4.232-.809-3.579-7.259.735-7.259 1.074 0 1.753.302 2.612 1.161m170.567-.267c3.104 2.698.09 7.541-3.841 6.17-2.378-.829-3.003-4.046-1.146-5.903 1.464-1.464 3.484-1.572 4.987-.267m48.152.373c1.352 1.27 1.281 3.991-.138 5.306-1.496 1.387-3.438 1.313-4.938-.187-3.481-3.48 1.487-8.49 5.076-5.119m-237.549 3.309c3.411 2.235 2.961 7.286-.797 8.936-2.443 1.074-9.387 1.831-11.36 1.24-4.331-1.297-5.075-7.395-1.151-9.424 2.916-1.508 11.42-1.988 13.308-.752m-8.227 2.361c-5.236.762-7.064 2.912-4.118 4.842 2.694 1.765 12.078-.433 12.078-2.829 0-2.572-1.505-2.953-7.96-2.013m217.423 1.217c9.003.801 9.406.873 9.399 1.695-.016 1.753-.256 1.786-7.986 1.104-9.923-.875-9.883-.867-9.883-1.967 0-1.688-.551-1.634 8.47-.832m-188.541 5.508c2.507 2.156.818 6.216-2.573 6.187-1.608-.014-2.482-.521-3.19-1.848-1.904-3.575 2.658-7.01 5.763-4.339m167.126.271c2.191 2.604.65 5.889-2.775 5.916-2.187.017-3.527-1.362-3.527-3.627 0-3.329 4.157-4.838 6.302-2.289m-216.487.025c.546.249 1.281 1.06 1.634 1.803 1.792 3.776-2.847 7.081-5.797 4.131-2.989-2.989.309-7.69 4.163-5.934m263.998.148c2.317 1.198 2.699 3.904.817 5.786-2.834 2.834-7.234-.031-5.962-3.884.721-2.185 2.983-3.021 5.145-1.902m-19.75 7.607c1.008.219 1.088.358.848 1.479-.351 1.641.182 1.417-6.378 2.676-3.199.614-5.873 1.173-5.943 1.243-.069.069 2.279.741 5.217 1.494 2.939.753 5.343 1.495 5.343 1.649s-.162.706-.36 1.227l-.36.946-8.216-2.081c-9.162-2.322-8.728-2.142-8.392-3.482.272-1.083.3-1.092 8.77-2.666 5.42-1.007 5.483-.917-1.925-2.787-5.577-1.408-5.154-1.174-4.825-2.673l.259-1.18 7.425 1.957c4.084 1.077 7.926 2.066 8.537 2.198m-192.193 3.477c3.665 1.532 2.587 6.985-1.382 6.985-3.955 0-5.11-5.378-1.493-6.949 1.614-.701 1.292-.697 2.875-.036m159.285 0c3.685 1.54 2.672 6.985-1.299 6.985-3.967 0-5.151-5.393-1.531-6.968 1.561-.679 1.249-.677 2.83-.017m-207.709 2.796c2.306 2.306.677 6.175-2.6 6.175-2.236 0-3.575-1.339-3.575-3.575s1.339-3.575 3.575-3.575c1.196 0 1.883.258 2.6.975m258.59 0c.717.718.975 1.404.975 2.6s-.258 1.883-.975 2.6c-.717.718-1.404.975-2.6.975s-1.883-.257-2.6-.975c-.717-.717-.975-1.404-.975-2.6s.258-1.882.975-2.6c.717-.717 1.404-.975 2.6-.975s1.883.258 2.6.975m-228.218 1.609c1.472.761 2.237 1.913 3.401 5.12l.913 2.516-8.216 2.991-8.216 2.991-.675-1.467c-1.323-2.872-1.697-4.996-1.183-6.711 1.409-4.703 9.393-7.81 13.976-5.44m-5.171 2.061c-4.088.641-7.198 3.808-6.389 6.507.576 1.922-.068 1.97 6.887-.512 5.259-1.876 5.832-2.171 5.619-2.889-.835-2.82-2.512-3.671-6.117-3.106m30.013 5.863c2.267 2.268.576 6.175-2.673 6.175-2.496 0-3.774-1.656-3.526-4.568.204-2.406 4.329-3.476 6.199-1.607m148.162 0c.718.718.975 1.405.975 2.6 0 3.321-3.755 4.876-6.102 2.528-2.348-2.347-.793-6.103 2.527-6.103 1.196 0 1.883.258 2.6.975m-200.031 2.792c2.371 1.226 2.365 5.147-.01 6.375-1.737.898-3.078.721-4.377-.578-3.126-3.127.439-7.838 4.387-5.797m251.354.81c1.305 1.503 1.197 3.523-.267 4.987-2.798 2.798-7.218-.081-5.963-3.884.853-2.584 4.397-3.212 6.23-1.103m-30.462 3.804c9.034 4.228 8.142 3.63 7.548 5.064l-.479 1.155-7.729-3.67c-8.954-4.252-8.263-3.79-7.657-5.119.576-1.264-.746-1.672 8.317 2.57m-185.513.954c-.153.219-1.303 1.683-2.555 3.254-2.281 2.862-2.412 3.378-1.222 4.812.056.067 1.238-.573 2.628-1.423 4.403-2.693 4.207-2.638 4.867-1.363l.58 1.122-7.527 4.503c-4.14 2.476-7.598 4.431-7.686 4.344-1.066-1.067-3.398-5.969-3.398-7.145 0-3.228 4.318-5.846 7.145-4.333.632.338 1.118-.093 3.396-3.01l2.659-3.406.696 1.124c.382.618.57 1.303.417 1.521m23.392 2.022c2.522 2.121.935 6.518-2.352 6.518-.637 0-1.665-.449-2.353-1.028-2.522-2.122-.935-6.519 2.353-6.519.636 0 1.664.449 2.352 1.029m133.863 0c2.522 2.121.935 6.518-2.353 6.518-.636 0-1.664-.449-2.352-1.028-2.522-2.122-.935-6.519 2.352-6.519.637 0 1.665.449 2.353 1.029m23.566 6.681c3.878 2.601 7.047 4.836 7.042 4.965s-.345.672-.756 1.207l-.748.973-5.839-.899c-3.211-.494-5.913-.824-6.003-.733-.091.09 1.804 1.467 4.211 3.058 4.74 3.134 4.705 3.093 3.682 4.34l-.695.848-7.051-4.801c-3.878-2.641-7.05-5.036-7.05-5.323 0-1.516 1.035-1.592 7.774-.575 3.589.542 6.525.935 6.525.875s-2.189-1.569-4.866-3.352c-2.676-1.784-4.934-3.301-5.019-3.372-.247-.209 1.171-2.202 1.47-2.066.15.069 3.445 2.253 7.323 4.855m-191.704-2.12c-1.279 1.006-1.32 2.096-.151 4.02l.892 1.466 2.301-1.41 2.302-1.41-.654-1.049c-1.554-2.496-2.957-2.98-4.69-1.617m-18.887.48c3.616 2.777-.009 8.384-4.029 6.232-2.017-1.08-2.359-4.042-.674-5.847.941-1.007 3.608-1.225 4.703-.385m240.185.385c2.429 2.603.783 6.256-2.82 6.256-2.925 0-4.501-3.9-2.463-6.099 1.306-1.409 4.038-1.49 5.283-.157m-178.109 4.126c2.844 2.844-.3 7.452-4.018 5.889-1.486-.625-2.085-1.645-2.085-3.552 0-3.134 3.837-4.603 6.103-2.337m116.458-.073c1.78 1.781 1.181 4.999-1.11 5.962-2.517 1.058-5.065-.628-5.065-3.351 0-3.189 3.934-4.852 6.175-2.611m-139.712 1.532.863.918-.992 1.344c-1.267 1.717-1.248 1.884.418 3.676l1.388 1.493 1.633-.833 1.634-.833.84.852c1.08 1.095 1.39.874-7.825 5.578l-7.384 3.769-1.016-1.006-1.016-1.006 5.069-7.428c5.604-8.212 5.195-7.794 6.388-6.524m-31.865 6.27c2.422 2.275.733 6.318-2.639 6.318-1.689 0-3.558-1.876-3.558-3.571 0-3.416 3.726-5.068 6.197-2.747m225.787-.629c2.316 1.197 2.699 3.904.817 5.786-1.946 1.946-4.778 1.461-5.803-.993-1.396-3.342 1.818-6.432 4.986-4.793m-160.665.772c1.971 1.971.873 5.778-1.822 6.317-4.034.807-6.133-4.766-2.566-6.812 1.378-.791 3.322-.571 4.388.495m95.638-.513c2.615 1.392 2.552 5.105-.109 6.481-2.501 1.293-5.18-.485-5.18-3.44 0-2.8 2.761-4.388 5.289-3.041m30.826 5.618c6.969 6.842 6.61 5.972 3.611 8.748-3.854 3.568-7.292 3.374-11.471-.647-4.448-4.28-4.68-8.086-.735-12.099 2.49-2.534 1.452-3.016 8.595 3.998m-162.704-5.199c-.216.28-1.271 1.756-2.344 3.281l-1.951 2.771 3.178-1.726c4.04-2.195 3.898-2.003 2.609-3.532-.845-1.002-1.19-1.186-1.492-.794m154.819 3.847c-3.242 4.553 5.102 12.521 9.202 8.788l1.297-1.181-4.404-4.38c-4.865-4.838-4.925-4.87-6.095-3.227m-107.704 2.656c1.583 1.331 1.698 3.538.271 5.196-2.178 2.532-6.199.822-6.199-2.637 0-1.838 1.743-3.588 3.575-3.588.637 0 1.664.449 2.353 1.029m74.28 0c1.583 1.331 1.698 3.538.271 5.196-2.178 2.532-6.199.822-6.199-2.637 0-1.838 1.743-3.588 3.575-3.588.637 0 1.664.449 2.353 1.029m-102.803 3.294c2.974 2.973 1.039 8.186-5.008 13.496-4.27 3.748-10.494-.506-8.221-5.62 3.384-7.617 9.718-11.387 13.229-7.876m-40.835.49c2.48 1.269 2.993 4.047 1.097 5.943-2.897 2.896-7.549-.237-5.979-4.027.81-1.955 3.07-2.842 4.882-1.916m211.628.236c1.517.897 2.203 2.916 1.538 4.524-1.072 2.588-3.99 3.166-5.973 1.183-3.143-3.143.607-7.968 4.435-5.707m-130.183.692c2.413 2.236.803 6.176-2.523 6.176-2.236 0-3.575-1.339-3.575-3.575 0-3.273 3.68-4.842 6.098-2.601m50.523.001c.718.717.975 1.404.975 2.6s-.257 1.883-.975 2.6c-.717.717-1.404.975-2.6.975-1.195 0-1.882-.258-2.6-.975-.717-.717-.975-1.404-.975-2.6s.258-1.883.975-2.6c.718-.717 1.405-.975 2.6-.975 1.196 0 1.883.258 2.6.975m-96.305.444c-3.927 3.304-6.723 8.525-5.27 9.84 1.908 1.727 4.391-.086 8.557-6.25 2.255-3.337-.287-6.115-3.287-3.59m135.175 6.576 5.381 6.803-1.003.789c-.552.434-1.054.724-1.115.645-.062-.08-2.315-2.915-5.008-6.302-2.694-3.386-5.072-6.383-5.285-6.66-.383-.498.638-2.078 1.342-2.078.169 0 2.728 3.061 5.688 6.803m-77.019-4.256c2.011 2.011 1.604 4.827-.866 6-1.688.8-3.032.529-4.333-.876-3.059-3.299 2.019-8.304 5.199-5.124m25.65.203c1.296 1.296 1.475 2.639.584 4.363-1.32 2.551-5.207 2.455-6.453-.159-1.824-3.825 2.879-7.194 5.869-4.204m-13.981.073c3.782 1.319 2.688 7.107-1.343 7.107-3.895 0-5.141-5.449-1.599-6.993 1.491-.649 1.416-.646 2.942-.114m54.905 11.128 2.388 8.486-.861.698c-1.395 1.129-1.59.989-8.036-5.771l-6.168-6.47 1.248-.716 1.248-.716 1.237 1.474c1.214 1.446 1.257 1.461 2.289.83.579-.355 1.484-.906 2.011-1.226.929-.565.942-.637.417-2.381-.536-1.782-.531-1.805.531-2.362 1.358-.714.941-1.634 3.696 8.154m-105.065-5.984c1.606.886 3.001 1.744 3.101 1.906.173.278-7.656 14.064-8.42 14.829-.458.458-4.995-2.209-6.057-3.56-1.563-1.986-.484-5.289 2.107-6.449.857-.383 1.376-.81 1.153-.947-.907-.561-.936-2.619-.062-4.425 1.628-3.361 3.869-3.733 8.178-1.354m-45.225 2.17c2.604 2.997-.768 7.365-4.406 5.708-3.552-1.619-1.774-7.577 2.078-6.964.842.134 1.804.653 2.328 1.256m40.229-.614c-1.993 1.993-.699 5.968 1.943 5.968.242 0 2.813-4.463 2.813-4.884 0-1.299-3.698-2.143-4.756-1.084m152.937.308c2.655 2.374.981 6.455-2.649 6.455-.581 0-1.495-.49-2.166-1.161-3.402-3.403 1.232-8.497 4.815-5.294m-47.485 3.147c-.656.347-1.258.689-1.338.759-.081.07.975 1.389 2.345 2.931 1.371 1.542 2.543 2.754 2.604 2.692.189-.188-1.951-7.048-2.193-7.031-.125.009-.763.301-1.418.649m-109.256 4.275c-.954 1.457-.601 3.034.872 3.891l1.25.727 1.278-2.077 1.278-2.078-.883-.715c-1.284-1.04-3.024-.924-3.795.252m55.608 1.368 2.02 1.14 1.976-1.132c5.198-2.976 10.662-.731 12.35 5.075 1.546 5.316-2.517 11.507-11.551 17.603l-2.903 1.959-2.859-2.007c-10.855-7.623-14.448-15.201-9.851-20.777 2.828-3.431 6.818-4.118 10.818-1.861m-82.37.812c2.339 2.339.747 5.989-2.612 5.989-1.43 0-1.889-.205-2.745-1.222-3.088-3.67 1.962-8.163 5.357-4.767m173.983 0c1.48 1.48 1.525 3.111.132 4.767-2.147 2.551-6.519.932-6.519-2.414 0-1.749 1.896-3.514 3.774-3.514 1.075 0 1.753.301 2.613 1.161m-163.085 8.449c2.997 3.562-2.099 8.019-5.398 4.72-1.48-1.48-1.525-3.111-.132-4.767 1.499-1.781 4.009-1.76 5.53.047m152.492-.047c1.393 1.656 1.348 3.287-.132 4.767-3.365 3.364-8.417-1.131-5.358-4.767.856-1.017 1.316-1.222 2.745-1.222 1.43 0 1.889.205 2.745 1.222m-141.306 6.879c2.532 2.178.821 6.199-2.637 6.199-3.426 0-4.807-4.511-2.034-6.641 1.084-.832 3.45-.608 4.671.442m129.261-.442c2.773 2.13 1.392 6.641-2.034 6.641-3.357 0-5.051-3.726-2.788-6.134 1.058-1.127 3.658-1.4 4.822-.507m-116.998 6.425c2.306 2.306.677 6.175-2.6 6.175-2.236 0-3.575-1.339-3.575-3.575s1.339-3.575 3.575-3.575c1.196 0 1.883.257 2.6.975m105.264 0c.717.717.975 1.404.975 2.6 0 1.195-.258 1.882-.975 2.6-.718.717-1.405.975-2.6.975-1.196 0-1.883-.258-2.6-.975-.718-.718-.975-1.405-.975-2.6 0-1.196.257-1.883.975-2.6.717-.718 1.404-.975 2.6-.975 1.195 0 1.882.257 2.6.975m-93.782 3.956c3.737 1.561 2.48 6.985-1.618 6.985-4.011 0-4.659-6.316-.746-7.263.437-.105.845-.213.907-.238s.717.207 1.457.516m81.152.751c1.292 1.173 1.249 3.929-.081 5.259-2.185 2.185-6.175.582-6.175-2.481 0-3.511 3.659-5.136 6.256-2.778m-67 3.423c3.264 3.264-1.151 8.401-4.673 5.437-2.849-2.398-1.35-6.529 2.389-6.582.726-.01 1.533.394 2.284 1.145m53.188-.57c3.332 1.723 1.389 7.406-2.33 6.814-3.127-.497-4.289-4.017-2.062-6.244 1.303-1.302 2.64-1.476 4.392-.57m-40.544 1.972c3.352 1.733 2.106 6.772-1.675 6.772-2.07 0-3.276-.871-3.666-2.65-.7-3.185 2.451-5.616 5.341-4.122m27.011 0c2.117 1.095 2.52 3.791.871 5.828-1.097 1.354-4.148 1.354-5.245 0-2.745-3.391.562-7.799 4.374-5.828m-12.645 1.379c2.799 2.798-.081 7.217-3.886 5.961-3.852-1.271-2.805-7.123 1.274-7.123 1.075 0 1.753.302 2.612 1.162" fill="#2255a4"/></g></svg>